<svg viewBox="0 0 240 116" role="img" aria-label="A speech recognizer turns the audio into a transcript, which may contain errors.">
  <g transform="translate(0 -22)"><path class="lt-s-arrow" d="M6 58 L10 50 L14 66 L18 40 L22 76 L26 46 L30 70 L34 30 L38 86 L42 52 L46 64 L50 44 L54 72 L58 56 L62 60 L66 48 L70 68 L74 54 L78 62 L82 58"/></g>
  <path class="lt-s-arrow" d="M88 36 H104"/>
  <polygon class="lt-s-head" points="103,30 103,42 111,36"/>
  <rect class="lt-s-tok" x="114" y="20" width="120" height="32" rx="6"/>
  <text class="lt-s-txt" x="174" y="41">Recognizer</text>
  <path class="lt-s-arrow" d="M174 52 V66"/>
  <polygon class="lt-s-head" points="168,65 180,65 174,73"/>
  <rect class="lt-s-tok" x="6" y="76" width="228" height="32" rx="6"/>
  <text class="lt-s-txt lt-s-small" x="120" y="97">who created 2 million jobs …</text>
</svg>
